<svg xmlns="http://www.w3.org/2000/svg" width="414.761" height="112.801" viewBox="0 0 414.761 112.801">
  <g id="hanzehogeschool" transform="translate(-0.001)">
    <path id="Path_108" data-name="Path 108" d="M79.369,93.6a10.981,10.981,0,0,0-5.245,1.467c-2.512,3.061,7.913,3.632.928,7.043a10.041,10.041,0,0,1-5.626.537c-2.735-.6-4.8-2.313-4.039-4.274.829-2.553,4.284-4.7,8.587-6.062,12.94-2.91,21.862-1.695,34.934-3.442,4.909-.571,5.353.06,5.339-3.119-.7-1.836-3.013-3.572-4.5-5.36C96.636,69.259,75.5,66.03,54.762,65.03l.022.182c8.965,4.327,15.788,9.438,23.691,14.148,4.1,2.323,10.039,2.56,15.095,2.205l1.714,2.129-.273.165L64.775,85.73h-.309C56.479,75.4,41.592,63.446,22.252,58.661c-3.5-.8-8.2-1.244-11.24-.18-3.263,1.731-.9,6.873-8.354,5.564A4.348,4.348,0,0,1,.426,62.628C-.6,60.732.287,59.1,2.408,57.92c7.386-3.67,19.681-1.525,29.886-1.879C38,55.883,44.43,55,45.931,51.462c.151-1.541-1.949-2.774-4.111-3.632a19,19,0,0,0-8.56-.014,8.7,8.7,0,0,1-2.884-1.62c4.5-1.939,10.02-3.569,16.668-2.069A35.948,35.948,0,0,1,54.753,46.8a13.372,13.372,0,0,0,5.665-4.931c1.563-2.6-.671-5.547-4.4-7.594a17.221,17.221,0,0,0-10.953-2.692l-3.212.345-1.659-1.76c4.778-2.325,12.659-2.505,19-.729A39.283,39.283,0,0,1,70.962,35.4c3.248-1.889,6.652-4.183,10.737-5.406,7.657-2.567,18.209-2.634,28.236-1.491l-.024-.185c-5.909-1.879-12.638-4.241-16.4-7.889-4.147-2.642-6.779-6.916-13.4-7.719-3.689-.137-6.257,1-9.071,1.865a10.467,10.467,0,0,1-3.219-1.817c6.789-3.064,17.339-4.126,26.659-1.738,12.815,3.344,13.851,11.442,24.626,16.349.944.422,1.9.8,2.86,1.2V0h1.975V112.8h-1.978l0-18.2c-12.662,3.605-26.609-1.043-42.6-.995m42.586-56.664.012-4.684v-.031c-7.618-1-15.361-.949-20.915,1.556l-7.968,3.946L62.853,55.506c-6,3.394-14.644,3.648-23.2,4.008l.019.18c9.876,1.812,23.212,3.493,31.834.686l9.44-4.639,25.506-14.97a35.736,35.736,0,0,1,15.5-3.833m.012,18.662V46.258l-13.422,7.793-.11.257Zm0,15.316,0-13.036-16.7-1.685-2.263,1.522c3.821,4.689,10.828,9.84,18.957,13.2m0,9.661V73.593C112.68,70.2,104.436,64.585,99.98,59.332L87.1,66.994c12.463,2.706,24.976,9.735,29.986,16.864l4.883-3.282Z" transform="translate(0)" fill="#d38000" fill-rule="evenodd"/>
    <path id="Path_109" data-name="Path 109" d="M67.943,28.1v-.3a1.164,1.164,0,0,1,1.179-1.285h.784V19.451H62.235v7.06H64.6v.3a1.227,1.227,0,0,1-1.381,1.28H56.249v-.3a1.167,1.167,0,0,1,1.184-1.285h.779V11.6H56.249v-.3a1.165,1.165,0,0,1,1.184-1.282H64.6v.3a1.227,1.227,0,0,1-1.381,1.28h-.98v6.084h7.671V11.6H67.945v-.3a1.162,1.162,0,0,1,1.179-1.282h7.168v.3a1.227,1.227,0,0,1-1.381,1.28h-.98v14.91h2.361v.3a1.227,1.227,0,0,1-1.381,1.28H67.943Zm10.315-3.042a3.318,3.318,0,0,1,1.084-2.364l5.981-1.834V19.244c0-1.505-.777-2.335-2.006-2.335a3.075,3.075,0,0,0-1.134.175l-.372,1.481a1.808,1.808,0,0,1-1.889,1.484H78.84v-.6c0-2.642,3.5-4.128,6.386-4.128,1.69,0,3.346.7,3.847,1.858v7.973c0,1.081.276,1.357,1.256,1.357h.6v.3c0,1.081-1.254,1.479-2.841,1.479a2.408,2.408,0,0,1-2.462-1.783h-.1l-.983.707A4.784,4.784,0,0,1,81.9,28.294c-2.361,0-3.644-1.179-3.644-3.239m5.3,1.081h.477l1.28-.551V22.037l-1.858.556a2.052,2.052,0,0,0-1.481,1.958c0,1.182.578,1.585,1.582,1.585M100.674,28.1v-.3a1.254,1.254,0,0,1,1.28-1.285h.3V20.63c0-1.76-.4-2.74-2.162-2.74a3.476,3.476,0,0,0-2.258.8V26.51h1.779v.3a1.229,1.229,0,0,1-1.386,1.28H92.521v-.3a1.259,1.259,0,0,1,1.285-1.285h.3V18.667a2.345,2.345,0,0,1-1.285-1.858V16.3l3.447-.98h1.561v2.261h.1a5.26,5.26,0,0,1,4.02-2.059c2.67,0,4.025,1.481,4.025,4.022V26.51h1.987v.3a1.228,1.228,0,0,1-1.381,1.28h-5.911Zm18.72.4-1.484-.4h-8.75v-.4a3.8,3.8,0,0,1,.875-2.337l5.938-8.071h-4.245l-.707,2.766h-.372a1.2,1.2,0,0,1-1.285-1.282,9.486,9.486,0,0,1,.3-1.585l.372-1.86h.609l1.182.4h8.443V16.1a4.238,4.238,0,0,1-.978,2.263l-5.787,8.146h4.4l.88-1.455c.4-.652.781-1.081,1.481-1.081h.477l-.882,4.526h-.475Zm2.85-6.487c0-4.226,2.793-6.688,6.59-6.688,3.373,0,5.012,1.585,5.012,3.646a6.243,6.243,0,0,1-.408,2.261l-7.369.379v.2c0,2.342,1.182,4.022,3.346,4.022a3.822,3.822,0,0,0,3.246-1.381h.2a1.75,1.75,0,0,1,.307,1.081c0,1.486-1.692,2.766-4.734,2.766-3.622,0-6.187-2.062-6.187-6.285m8.05-2.162a3.069,3.069,0,0,0,.2-1.081c0-1.081-.47-1.958-1.755-1.958-1.486,0-2.563,1.455-2.666,3.421v.1ZM143.809,28.1v-.3a1.255,1.255,0,0,1,1.278-1.285h.3V20.63c0-1.76-.4-2.74-2.16-2.74a3.506,3.506,0,0,0-2.265.8V26.51h1.966v.3a1.212,1.212,0,0,1-1.357,1.28h-5.911v-.3a1.18,1.18,0,0,1,1.179-1.285h.4V11.4l-2.059.4v-.6c0-.681.5-1.359,1.656-1.558l1.961-.4h2.488a20.542,20.542,0,0,0-.328,3.922v4.423h.11a5.239,5.239,0,0,1,4.015-2.059c2.67,0,4.025,1.481,4.025,4.022v6.964H151.1v.3a1.23,1.23,0,0,1-1.386,1.28h-5.9Zm8.558-6.288c0-3.919,2.613-6.484,6.686-6.484,4.325,0,6.563,2.361,6.563,6.484s-2.694,6.489-6.762,6.489q-6.49,0-6.487-6.489m9.327,0c0-2.841-.681-5-2.74-5-1.688,0-2.668,2.162-2.668,5s.707,5,2.766,5c1.659,0,2.642-2.16,2.642-5m10.3,1.987-.23.652c0,.707.479.832,1.563.9l2.865.18c2.265.177,3.718,1.031,3.718,3.243,0,3.241-4.248,4.828-7.894,4.828-2.191,0-5.152-.451-5.152-2.867,0-1.882,2.21-2.716,3.421-2.944a1.961,1.961,0,0,1-1.561-1.958c0-1.182,1.081-1.76,2.157-2.162V23.6c-1.93-.53-3.438-1.791-3.438-3.948,0-2.941,2.841-4.322,5.806-4.322a7.3,7.3,0,0,1,4.073,1.179h.225a1.728,1.728,0,0,1,1.484-.779h2.364v.3c0,.88-.4,1.762-1.381,1.762h-1.541a3.608,3.608,0,0,1,.458,1.76c0,3.044-2.949,4.322-5.784,4.322a8.551,8.551,0,0,1-1.153-.074m1.105,8.021c2.04,0,3.291-.58,3.291-1.961,0-.882-.5-1.232-1.985-1.357l-3.215-.3a2.191,2.191,0,0,0-1.007,1.757c0,1.28,1.084,1.86,2.915,1.86m2.215-12.269c0-1.863-.659-2.841-2.165-2.841-1.462,0-2.059.88-2.059,2.841,0,1.86.5,2.941,2.059,2.941,1.505,0,2.165-1.081,2.165-2.941m6.674,2.464c0-4.226,2.793-6.688,6.587-6.688,3.363,0,5,1.585,5,3.646a6.245,6.245,0,0,1-.4,2.261l-7.362.379v.2c0,2.342,1.177,4.022,3.346,4.022a3.817,3.817,0,0,0,3.243-1.381h.2a1.75,1.75,0,0,1,.309,1.081c0,1.486-1.685,2.766-4.73,2.766-3.627,0-6.189-2.062-6.189-6.285m8.045-2.162a3.111,3.111,0,0,0,.2-1.081c0-1.081-.475-1.958-1.762-1.958-1.484,0-2.56,1.455-2.661,3.421v.1Zm5.47,7.266v-.5a2.09,2.09,0,0,1,2.059-2.162h.4l.885,2.062a2.594,2.594,0,0,0,1.479.4c1.354,0,2.165-.676,2.165-1.858,0-.98-1.182-1.386-1.987-1.688l-1.563-.578c-1.755-.652-2.934-1.757-2.934-3.72,0-2.563,2.658-3.744,5.3-3.744a10.108,10.108,0,0,1,4.5.978v.506c0,1.079-.853,2.16-1.556,2.16h-.506l-.978-1.963a2.28,2.28,0,0,0-1.184-.3,1.654,1.654,0,0,0-1.853,1.762c0,.877.774,1.232,1.678,1.58l1.254.479c1.791.7,3.548,1.484,3.548,3.847,0,2.234-1.958,3.919-5.708,3.919a10.161,10.161,0,0,1-5-1.177m12.633-5.2c0-4.327,3.193-6.587,6.961-6.587a7.01,7.01,0,0,1,3.752.98v.506a2.481,2.481,0,0,1-1.184,2.361h-.3l-1.556-1.884a1.191,1.191,0,0,0-.983-.477c-1.587,0-2.865,1.656-2.865,4.5,0,3.445,1.673,4.526,3.342,4.526a3.762,3.762,0,0,0,2.862-1.386h.175a1.929,1.929,0,0,1,.3,1.007c0,1.455-1.76,2.843-4.322,2.843-3.826,0-6.187-2.263-6.187-6.386M228.414,28.1v-.3a1.255,1.255,0,0,1,1.28-1.285h.3V20.63c0-1.76-.4-2.74-2.165-2.74a3.5,3.5,0,0,0-2.263.8V26.51h1.966v.3a1.209,1.209,0,0,1-1.354,1.28h-5.914v-.3a1.179,1.179,0,0,1,1.182-1.285h.4V11.4l-2.064.4v-.6c0-.681.508-1.359,1.661-1.558l1.958-.4H225.9a20.333,20.333,0,0,0-.331,3.922v4.423h.11a5.24,5.24,0,0,1,4.018-2.059c2.666,0,4.022,1.481,4.022,4.022v6.964H235.7v.3a1.229,1.229,0,0,1-1.383,1.28h-5.9Zm8.433-6.288c0-3.919,2.608-6.484,6.686-6.484,4.327,0,6.559,2.361,6.559,6.484S247.4,28.3,243.332,28.3q-6.48,0-6.484-6.489m9.327,0c0-2.841-.681-5-2.745-5-1.683,0-2.668,2.162-2.668,5s.712,5,2.771,5c1.661,0,2.642-2.16,2.642-5m5.868,0c0-3.919,2.615-6.484,6.686-6.484,4.329,0,6.563,2.361,6.563,6.484S262.6,28.3,258.528,28.3q-6.48,0-6.484-6.489m9.33,0c0-2.841-.683-5-2.745-5-1.68,0-2.663,2.162-2.663,5s.707,5,2.764,5c1.661,0,2.644-2.16,2.644-5m5.415,6.288v-.3a1.178,1.178,0,0,1,1.177-1.285h.4V11.4l-2.064.4v-.6c0-.681.508-1.359,1.661-1.558l1.966-.4h2.483a19.623,19.623,0,0,0-.328,3.922v13.35h1.963v.3a1.207,1.207,0,0,1-1.354,1.28h-5.907ZM64.244,46.342v-.3a1.24,1.24,0,0,1,1.383-1.278h6.786v.295a1.241,1.241,0,0,1-1.378,1.285h-.606v5.581a13.224,13.224,0,0,1-6.659,1.685c-5.835,0-8.651-4.126-8.651-9.33,0-5.806,4.224-9.15,9.529-9.15a8.827,8.827,0,0,1,3.826.7h.2l1.182-.5h.781v3.143c0,1.282-.578,2.064-1.561,2.064h-.2l-1.28-3.042a4.878,4.878,0,0,0-2.845-.681c-3.145,0-5.5,2.618-5.5,6.969,0,4.423,1.76,7.868,5.3,7.868a3.737,3.737,0,0,0,2.261-.7v-4.6H64.244Zm9.917,7.064v-.3a1.177,1.177,0,0,1,1.177-1.285h.4V43.976a2.345,2.345,0,0,1-1.285-1.855v-.506l3.447-.978h1.561V43h.1l.786-.875c.75-.832,1.177-1.285,2.16-1.285a1.658,1.658,0,0,1,1.781,1.656,2.786,2.786,0,0,1-.8,1.987h-.182a2.461,2.461,0,0,0-1.985-.8,3.428,3.428,0,0,0-1.858.63v7.518H82.3v.3a1.209,1.209,0,0,1-1.357,1.28Zm11.13-6.288c0-3.922,2.611-6.484,6.686-6.484,4.325,0,6.559,2.359,6.559,6.484s-2.685,6.489-6.76,6.489q-6.49,0-6.484-6.489m9.325,0c0-2.838-.678-5-2.738-5-1.692,0-2.673,2.16-2.673,5s.71,5.005,2.769,5.005c1.661,0,2.642-2.16,2.642-5.005m13.942,6.288v-.3a1.253,1.253,0,0,1,1.278-1.285h.3V45.939c0-1.76-.4-2.738-2.16-2.738a3.488,3.488,0,0,0-2.268.8v7.817H107.5v.3a1.228,1.228,0,0,1-1.381,1.28H100.41v-.3a1.257,1.257,0,0,1,1.28-1.285H102V43.974a2.35,2.35,0,0,1-1.285-1.855v-.506l3.445-.978h1.558v2.261h.1a5.259,5.259,0,0,1,4.022-2.062c2.663,0,4.025,1.484,4.025,4.025v6.964h1.987v.3a1.228,1.228,0,0,1-1.381,1.28h-5.911Zm8.481,0v-.3a1.177,1.177,0,0,1,1.179-1.282h.4V43.978a2.355,2.355,0,0,1-1.28-1.855v-.506l3.442-.978h1.863a21.13,21.13,0,0,0-.307,3.919v7.268h1.966v.3a1.214,1.214,0,0,1-1.359,1.282h-5.907Zm1.582-17.2c0-.98.784-1.661,2.062-1.661,1.259,0,2.062.681,2.062,1.661s-.8,1.685-2.062,1.685-2.062-.7-2.062-1.685m15.258,17.2v-.3a1.253,1.253,0,0,1,1.275-1.285h.309V45.939c0-1.76-.4-2.738-2.162-2.738a3.5,3.5,0,0,0-2.265.8v7.817h1.788v.3a1.231,1.231,0,0,1-1.388,1.28h-5.705v-.3a1.256,1.256,0,0,1,1.285-1.285h.3V43.974a2.35,2.35,0,0,1-1.28-1.855v-.506l3.442-.978h1.561v2.261h.105a5.249,5.249,0,0,1,4.015-2.062c2.675,0,4.032,1.484,4.032,4.025v6.964h1.982v.3a1.229,1.229,0,0,1-1.383,1.28h-5.911Zm13.237-4.3-.23.652c0,.707.479.832,1.561.9l2.865.177c2.261.175,3.723,1.033,3.723,3.246,0,3.246-4.248,4.826-7.894,4.826-2.2,0-5.152-.448-5.152-2.865,0-1.882,2.2-2.716,3.418-2.941a1.966,1.966,0,0,1-1.563-1.958c0-1.182,1.084-1.76,2.162-2.162v-.074c-1.937-.527-3.44-1.788-3.44-3.948,0-2.941,2.841-4.322,5.806-4.322a7.284,7.284,0,0,1,4.07,1.179h.228a1.733,1.733,0,0,1,1.484-.779h2.366v.3c0,.882-.4,1.764-1.383,1.764H153.6a3.606,3.606,0,0,1,.453,1.76c0,3.044-2.946,4.322-5.784,4.322a9.359,9.359,0,0,1-1.151-.079m1.105,8.019c2.04,0,3.291-.578,3.291-1.958,0-.88-.5-1.232-1.985-1.357l-3.217-.3a2.2,2.2,0,0,0-1,1.76c0,1.28,1.084,1.858,2.915,1.858m2.208-12.266c0-1.863-.652-2.843-2.16-2.843-1.457,0-2.059.877-2.059,2.843,0,1.858.5,2.941,2.059,2.941,1.508,0,2.16-1.084,2.16-2.941m6.8,2.462c0-4.226,2.788-6.688,6.585-6.688,3.37,0,5.01,1.582,5.01,3.646a6.244,6.244,0,0,1-.405,2.261l-7.367.379v.2c0,2.342,1.182,4.022,3.344,4.022a3.809,3.809,0,0,0,3.243-1.383h.2a1.8,1.8,0,0,1,.3,1.081c0,1.486-1.678,2.766-4.727,2.766-3.62,0-6.185-2.059-6.185-6.283m8.047-2.162a3.008,3.008,0,0,0,.2-1.084c0-1.081-.482-1.958-1.757-1.958-1.484,0-2.565,1.455-2.666,3.421v.1l4.221-.475Zm13.892,8.246v-.3a1.256,1.256,0,0,1,1.283-1.285h.3V45.939c0-1.76-.408-2.738-2.167-2.738a3.461,3.461,0,0,0-2.251.8v7.817h1.776v.3a1.23,1.23,0,0,1-1.386,1.28h-5.7v-.3a1.257,1.257,0,0,1,1.28-1.285h.307V43.974a2.337,2.337,0,0,1-1.283-1.855v-.506l3.445-.978h1.563v2.261h.1a5.263,5.263,0,0,1,4.022-2.062c2.663,0,4.02,1.484,4.02,4.025v6.964h1.987v.3a1.228,1.228,0,0,1-1.376,1.28h-5.916ZM57.688,73.365v-8.92H56.055v-.168c0-.65.4-.9,1.069-.9h4.5v.17c0,.647-.5.9-1.153.9h-.815v8.419c0,2.788,1.131,4.423,3.747,4.423,2.474,0,3.941-1.218,3.941-4.087V64.445h-1.97v-.168c0-.65.422-.9,1.069-.9h4.336v.17c0,.647-.482.9-1.153.9h-.815v8.922c0,2.932-1.947,5.235-5.552,5.235-3.373,0-5.571-1.632-5.571-5.238M77.7,78.435v-.168c0-.652.4-.9,1.045-.9H79V71.733c0-1.8-.65-2.471-2.033-2.471A3.725,3.725,0,0,0,74.5,70.352v7.014h1.635v.168c0,.482-.4.9-1.213.9h-3.6v-.168c0-.652.417-.9,1.069-.9H72.7V70.1c-.487-.168-1.213-.753-1.213-1.318v-.168l2.534-.815H74.5v1.8h.084a4.36,4.36,0,0,1,3.126-1.632c2.112,0,3.1,1.069,3.1,3.1v6.3H82.52v.168c0,.482-.4.9-1.213.9H77.7Zm6.17,0V78.27c0-.652.417-.9,1.067-.9h.316V70.1a1.812,1.812,0,0,1-1.215-1.318v-.17l2.534-.815h.734a17.265,17.265,0,0,0-.254,3.27v6.3H88.7v.168c0,.482-.4.9-1.218.9h-3.6Zm1.151-14.409A1.129,1.129,0,0,1,86.24,62.89a1.143,1.143,0,1,1,0,2.285,1.171,1.171,0,0,1-1.215-1.148M93.571,78.6a10.118,10.118,0,0,0-.734-2.3L89.9,69.2h-.834v-.168c0-.647.333-.9.98-.9h3.684V68.3c0,.647-.5.9-1.148.9h-.647v.062l2.7,6.973L97,69.264V69.2H95.367v-.168c0-.647.336-.9.983-.9h2.932V68.3a.874.874,0,0,1-.956.9H98.2L94.719,78.44l-1.148.163Zm6.379-5.068c0-3.435,2.136-5.739,4.818-5.739,2.3,0,3.517,1.4,3.517,2.867a5.659,5.659,0,0,1-.23,1.889l-6.307.312V73.2c0,2.285,1.155,4.085,3.27,4.085a3.108,3.108,0,0,0,2.539-1.131h.161l.17.482c0,1.069-1.4,1.968-3.354,1.968-2.786,0-4.583-1.97-4.583-5.068m6.47-1.968a2.111,2.111,0,0,0,.149-.9,1.794,1.794,0,0,0-1.944-1.966c-1.491,0-2.706,1.551-2.877,3.33Zm3.747,6.868v-.168c0-.652.422-.9,1.067-.9h.316V70.1c-.484-.168-1.213-.753-1.213-1.318v-.168l2.531-.815h.482v1.884h.081l1.064-1.069a1.779,1.779,0,0,1,1.386-.647,1.109,1.109,0,0,1,1.153,1.153,2.059,2.059,0,0,1-.4,1.292h-.17a1,1,0,0,0-1.062-.647,2.855,2.855,0,0,0-2.052.736v6.868h2.22v.168c0,.482-.417.9-1.232.9h-4.171Zm7.971-1.069v-.249a1.505,1.505,0,0,1,1.3-1.637h.331l.566,1.637a2.434,2.434,0,0,0,1.486.5c1.465,0,2.285-.731,2.285-1.882,0-.9-.688-1.28-1.467-1.549l-1.4-.5c-1.294-.482-2.531-1.215-2.531-2.932,0-1.632,1.4-2.953,3.682-2.953a5.824,5.824,0,0,1,3.354.985v.165c0,.985-.566,1.637-1.213,1.637h-.252l-.736-1.465a1.616,1.616,0,0,0-1.067-.338c-1.153,0-1.966.482-1.966,1.632,0,.9.477,1.3,1.4,1.637l1.549.583c1.469.568,2.457,1.215,2.457,2.934,0,1.635-1.386,3.035-4.092,3.035a6.072,6.072,0,0,1-3.687-1.237m9.761,1.069V78.27c0-.652.415-.9,1.062-.9h.319V70.1a1.819,1.819,0,0,1-1.22-1.318v-.17l2.539-.815h.734a17.727,17.727,0,0,0-.249,3.27v6.3h1.632v.168c0,.482-.4.9-1.215.9Zm1.151-14.409a1.124,1.124,0,0,1,1.213-1.136,1.142,1.142,0,1,1,0,2.285,1.172,1.172,0,0,1-1.213-1.148M135.3,77.285V69.345h-1.649V69.2c0-.669.331-1.069.978-1.069h.669V65.994l1.215-.647h.59V68.13h3.013v.17a1.041,1.041,0,0,1-1.151,1.048h-1.86v6.64c0,.985.4,1.3,1.215,1.3a1.647,1.647,0,0,0,1.467-.65h.163l.165.482c0,.753-.9,1.486-2.452,1.486a2.7,2.7,0,0,1-2.364-1.323m5.271,5.571v-.168a1.281,1.281,0,0,1,1.467-1.465,4.24,4.24,0,0,1,1.318.312h.17a2.212,2.212,0,0,0,.81-1.131l.738-1.824a10.792,10.792,0,0,0-.738-2.282l-3.092-7.1H140.4v-.165c0-.65.343-.9.99-.9h3.682V68.3c0,.65-.5.9-1.148.9h-.65v.065l2.764,6.724,2.3-6.724V69.2h-1.635v-.165c0-.65.338-.9.983-.9h2.937V68.3a.818.818,0,0,1-.9.9h-.17l-3.831,10.389c-.731,1.8-1.386,3.435-3.684,3.435a5.321,5.321,0,0,1-1.465-.17m16.373-9.572c0-3.349,2.28-5.485,4.981-5.485,3.121,0,4.588,2.05,4.588,5.317,0,3.354-2.133,5.49-4.9,5.49-3.114,0-4.667-2.052-4.667-5.322m7.688-.17c0-2.534-.988-4.418-3.02-4.418-1.716,0-2.783,1.968-2.783,4.588,0,2.536,1.067,4.42,3.1,4.42,1.719,0,2.706-1.97,2.706-4.591m3.886,5.322v-.168c0-.652.42-.9,1.067-.9h.314V69.345h-1.632V69.2c0-.669.338-1.069.983-1.069h.65V65.515a4.655,4.655,0,0,1,4.425-2.953,6.258,6.258,0,0,1,1.232.165l1.3.338v.146a1.022,1.022,0,0,1-1.134,1.151,4.478,4.478,0,0,1-1.549-.482l-.906-.42h-.161c-.82.5-1.407,1.318-1.407,3.349v1.318h2.872v.17a1.045,1.045,0,0,1-1.158,1.048H171.7v8.021h2.22v.168c0,.482-.417.9-1.235.9h-4.169Zm20.2,0v-.17c0-.65.34-.9.99-.9h.647v-.082l-1.129-3.44h-5.171l-1.134,3.44v.082h1.635v.17c0,.647-.5.9-1.148.9h-3.354v-.17c0-.65.314-.9.98-.9h.249l5.3-13.911,1.4-.249a15.921,15.921,0,0,0,.9,3.435l3.538,10.725h1.45v.17c0,.647-.482.9-1.155.9h-4.006Zm-4.229-5.887h4.317l-2.141-6.556ZM195.06,83.024v-.168c0-.65.343-.9.99-.9h.336V70.1a1.813,1.813,0,0,1-1.235-1.323v-.168l2.536-.815h.5v1.467h.086a3.773,3.773,0,0,1,2.848-1.3c2.383,0,4.188,1.716,4.188,4.9,0,3.375-2.057,5.739-5.175,5.739a4.923,4.923,0,0,1-1.947-.376v3.73h2.448V82.2c0,.65-.5.82-1.148.82H195.06Zm8.357-9.74c0-2.448-1.067-4.02-3.119-4.02a3.179,3.179,0,0,0-2.114.69v5.386c0,1.714.9,2.366,1.946,2.366,2.057,0,3.287-1.889,3.287-4.423m3.641,9.74v-.168c0-.65.333-.9.98-.9h.333V70.1c-.582-.173-1.232-.841-1.232-1.323v-.168l2.534-.815h.506v1.467h.082a3.78,3.78,0,0,1,2.845-1.3c2.392,0,4.2,1.716,4.2,4.9,0,3.375-2.054,5.739-5.178,5.739a4.911,4.911,0,0,1-1.944-.376v3.73h2.445V82.2c0,.65-.5.82-1.148.82h-4.418Zm8.354-9.74c0-2.448-1.069-4.02-3.121-4.02a3.169,3.169,0,0,0-2.112.69v5.386c0,1.714.9,2.366,1.944,2.366,2.057,0,3.289-1.889,3.289-4.423m3.788,5.152v-.168c0-.652.415-.9,1.067-.9h.312V64.107l-1.8.338v-.252c0-.566.424-.9,1.41-1.129l1.628-.338h.817a14.775,14.775,0,0,0-.249,2.953V77.366h1.714v.168c0,.482-.4.9-1.215.9H219.2Zm6.17,0V78.27c0-.652.422-.9,1.064-.9h.321V70.1a1.815,1.815,0,0,1-1.218-1.318v-.17l2.539-.815h.726a18.157,18.157,0,0,0-.249,3.27v6.3h1.637v.168c0,.482-.4.9-1.215.9Zm1.155-14.409a1.126,1.126,0,0,1,1.215-1.136,1.143,1.143,0,1,1,0,2.285,1.17,1.17,0,0,1-1.215-1.148m5.017,9.51c0-3.435,2.138-5.739,4.821-5.739,2.3,0,3.524,1.4,3.524,2.867a5.627,5.627,0,0,1-.24,1.889l-6.3.312V73.2c0,2.285,1.148,4.085,3.26,4.085a3.1,3.1,0,0,0,2.536-1.131h.168l.168.482c0,1.069-1.4,1.968-3.349,1.968-2.783,0-4.591-1.97-4.591-5.068m6.472-1.968a2.111,2.111,0,0,0,.149-.9,1.791,1.791,0,0,0-1.946-1.966c-1.486,0-2.7,1.551-2.862,3.33ZM249.09,78.6V77.285h-.084a3.591,3.591,0,0,1-2.862,1.316c-2.376,0-4.171-1.8-4.171-4.984,0-3.37,2.047-5.655,5.149-5.655a5.2,5.2,0,0,1,1.968.376V64.191l-2.222.422v-.254c0-.566.422-.9,1.4-1.148l2.033-.482h.82a16.7,16.7,0,0,0-.23,2.951V77.366h1.549v.168c0,.65-.65.815-1.321.9l-2.033.168Zm-5.233-5.4c0,2.45,1.148,4.087,3.181,4.087a3.025,3.025,0,0,0,2.05-.674V71.232c0-1.716-.817-2.368-1.879-2.368-2.138,0-3.351,1.8-3.351,4.336m15.8,5.4-.333-4.42h.249c.563,0,.815.254,1.069.985l.477,1.467a4.559,4.559,0,0,0,2.786.9c1.971,0,3.016-1.067,3.016-2.869,0-1.553-.813-2.265-2.448-3.018l-1.966-.9a3.932,3.932,0,0,1-2.771-3.773c0-2.364,2.205-3.771,4.655-3.771a6.453,6.453,0,0,1,2.62.587h.161l.817-.417h.34v2.618c0,.817-.252,1.321-.65,1.321h-.165l-.822-2.3a4.167,4.167,0,0,0-2.3-.734c-1.805,0-2.7.9-2.7,2.45,0,1.489.671,1.97,1.966,2.536l1.971.9c1.383.674,3.265,1.573,3.265,4.19,0,2.282-1.721,4.25-5.154,4.25a9.2,9.2,0,0,1-2.7-.5h-.17l-.9.5h-.312Zm11.406-5.238a5.2,5.2,0,0,1,5.24-5.571,5.348,5.348,0,0,1,2.951.815v.168a2,2,0,0,1-.822,1.63h-.249l-1.321-1.292a.948.948,0,0,0-.813-.422c-1.887,0-3.1,1.889-3.1,4.339,0,2.949,1.549,4.25,3.186,4.25a3.155,3.155,0,0,0,2.618-1.134h.165l.165.484c0,.815-1.069,1.966-3.433,1.966-2.7,0-4.586-1.963-4.586-5.233m9.78,5.07V78.27c0-.652.415-.9,1.057-.9h.321V70.1a1.816,1.816,0,0,1-1.215-1.318v-.17l2.536-.815h.734a17.521,17.521,0,0,0-.249,3.27v6.3h1.63v.168c0,.482-.4.9-1.215.9h-3.6Zm1.148-14.409A1.126,1.126,0,0,1,283.2,62.89a1.143,1.143,0,1,1,0,2.285,1.174,1.174,0,0,1-1.213-1.148m5.024,9.51c0-3.435,2.136-5.739,4.818-5.739,2.3,0,3.514,1.4,3.514,2.867a5.938,5.938,0,0,1-.225,1.889l-6.307.312V73.2c0,2.285,1.148,4.085,3.267,4.085a3.108,3.108,0,0,0,2.539-1.131h.161l.17.482c0,1.069-1.4,1.968-3.354,1.968-2.783,0-4.583-1.97-4.583-5.068m6.47-1.968a2.142,2.142,0,0,0,.146-.9,1.794,1.794,0,0,0-1.949-1.966c-1.479,0-2.7,1.551-2.865,3.33Zm10.337,6.868v-.168c0-.652.4-.9,1.05-.9h.249V71.733c0-1.8-.65-2.471-2.028-2.471a3.726,3.726,0,0,0-2.479,1.091v7.014h1.637v.168c0,.482-.4.9-1.215.9h-3.6v-.168c0-.652.419-.9,1.069-.9h.314V70.1c-.479-.168-1.215-.753-1.215-1.318v-.168l2.536-.815h.477v1.8h.084a4.372,4.372,0,0,1,3.121-1.632c2.117,0,3.1,1.069,3.1,3.1v6.3h1.721v.168c0,.482-.4.9-1.215.9h-3.605ZM310,73.365a5.2,5.2,0,0,1,5.233-5.571,5.365,5.365,0,0,1,2.956.815v.168a2.019,2.019,0,0,1-.82,1.63h-.249L315.8,69.115a.97.97,0,0,0-.82-.422c-1.887,0-3.1,1.889-3.1,4.339,0,2.949,1.549,4.25,3.179,4.25a3.166,3.166,0,0,0,2.627-1.134h.161l.165.484c0,.815-1.067,1.966-3.43,1.966-2.7,0-4.583-1.963-4.583-5.233m9.665.17c0-3.435,2.141-5.739,4.823-5.739,2.3,0,3.509,1.4,3.509,2.867a5.74,5.74,0,0,1-.225,1.889l-6.307.312V73.2c0,2.285,1.155,4.085,3.272,4.085a3.105,3.105,0,0,0,2.534-1.131h.161l.175.482c0,1.069-1.4,1.968-3.358,1.968-2.783,0-4.583-1.97-4.583-5.068m6.47-1.968a2.111,2.111,0,0,0,.149-.9,1.793,1.793,0,0,0-1.944-1.966c-1.489,0-2.711,1.551-2.874,3.33Zm3.85,5.8v-.249a1.505,1.505,0,0,1,1.3-1.637h.338l.563,1.637a2.445,2.445,0,0,0,1.493.5c1.458,0,2.282-.731,2.282-1.882,0-.9-.7-1.28-1.469-1.549l-1.4-.5c-1.3-.482-2.534-1.215-2.534-2.932,0-1.632,1.4-2.953,3.682-2.953a5.813,5.813,0,0,1,3.349.985v.165c0,.985-.563,1.637-1.211,1.637h-.252l-.734-1.465a1.639,1.639,0,0,0-1.069-.338c-1.153,0-1.971.482-1.971,1.632,0,.9.487,1.3,1.4,1.637l1.556.583c1.465.568,2.447,1.215,2.447,2.934,0,1.635-1.376,3.035-4.078,3.035a6.082,6.082,0,0,1-3.692-1.237" transform="translate(77.008 12.911)" fill="#fff"/>
  </g>
</svg>
