<svg xmlns="http://www.w3.org/2000/svg" width="434.38" height="74.081" viewBox="0 0 434.38 74.081">
  <g id="noorderpoort" transform="translate(0.001)">
    <path id="Path_110" data-name="Path 110" d="M178.753,17.057V.139L189.933,0V41.851c-1.3,9.4-5.461,16.131-15.961,16.769-9.655.59-16.91-4.953-17.848-13.513-.249-2.255-.575-5.457-.575-7.758,0-11.925,3.1-20.491,13.276-21.763,4.171-.521,6.588.539,9.928,1.472ZM172.53,25.15c-3.686,0-5.9,3.866-5.9,10.9,0,8.96,1.036,13.079,5.9,13.079,7.393,0,6.225-7.088,6.225-22.877C175.113,25.079,174.723,25.15,172.53,25.15Zm255.23-8.829,6.619.368v6.988l-6.663-.016.042,33.855H416.725V24.046l-5.15-.368L410.1,16.69l6.64-.045-.02-11.359,10.81-1.471.225,12.507ZM8.826,4.553c7,9.182,11.985,20.382,18.759,29.792V4.553h11.4V57.517H29.424C23.43,47.694,17.762,37.546,11.4,28.092V57.517H0V4.553Z" fill="#fff"/>
    <path id="Path_111" data-name="Path 111" d="M912.075,54.466c5.851-5.71,10.41-10.773,18.968-10.731,9.061.043,17.278,7.362,18.39,17.286,1.4,12.514-4.092,24.5-15.816,26.114-10.647,1.467-17.572-4.649-21.061-11.705-4.866,6.2-11.729,14.438-23.813,11.338-20.752-5.328-18.23-41.582,3.679-43.035C901.751,43.117,907.48,47.547,912.075,54.466ZM898.306,55.5c-14.989-8.128-19.493,20.907-4.413,20.964,6.815.028,8.889-5.6,12.505-10.3-3.021-3.775-4.123-8.512-8.092-10.666ZM928.1,76.469c15.086,2.712,14.463-22.274,1.471-22.066-6.567.1-8.058,5.527-12.14,10.3C920.608,69.039,922.445,75.454,928.1,76.469Z" transform="translate(-570.958 -28.516)" fill="#f8d74f"/>
    <path id="Path_112" data-name="Path 112" d="M145.277,44.462c10.63-1.468,16.705,4.307,18.759,8.092,1.8,3.332,2.086,8.3,2.078,12.8-.014,7.491-1.722,14.626-5.021,17.732-4.413,4.154-12.718,5.813-19.495,3.31-7.158-2.643-10.349-10.59-10.349-21.83,0-6.358,1.208-12.191,4.832-15.686A18.281,18.281,0,0,1,145.277,44.462ZM142.328,65.2c0,8.114,1.248,12.775,6.305,12.775,6.053,0,6.757-5.931,6.757-12.073,0-7.338-1.724-12.254-6.757-12.254-4.6,0-6.305,4.406-6.305,11.552Zm44.481-20.737c10.632-1.468,16.707,4.307,18.759,8.092,1.8,3.332,2.088,8.3,2.08,12.8-.015,7.491-1.723,14.626-5.023,17.732-4.412,4.154-12.716,5.813-19.493,3.31-7.158-2.643-10.349-10.59-10.349-21.83,0-6.358,1.208-12.191,4.831-15.686A18.285,18.285,0,0,1,186.809,44.462ZM183.861,65.2c0,8.114,1.25,12.775,6.307,12.775,6.053,0,6.757-5.931,6.757-12.073,0-7.338-1.724-12.254-6.757-12.254-4.6,0-6.307,4.406-6.307,11.552Zm131.9-6.921c.606,3.176.176,10.825.176,10.825H293.5c-1.868,11.036,11.731,9.58,18.39,6.991l2.207,8.827c-10.761,4.317-24.179,3.581-29.426-5.15-2.049-3.411-2.2-8.61-2.2-13.793,0-8.71,1.883-15.705,6.615-18.941a19.535,19.535,0,0,1,6.988-2.576c10.815-1.436,17.809,3.977,19.689,13.816Zm-22.261,3.1,11.337-.042C304.841,51.665,293.5,51.571,293.5,61.381Zm53.332-15.813L345,54.395c-3.953-.437-6.516-1.214-8.829.368-1.352.925-2.077,2.671-2.429,4.906l-.021,26.719-10.765.006V59.116c1.267-7.838,4.8-13.567,13.583-14.652a25.06,25.06,0,0,1,10.3,1.1Zm-108.816,0-1.839,8.827c-3.951-.437-6.516-1.213-8.827.368-1.35.925-2.077,2.671-2.428,4.906L224.9,86.388l-10.765.006V59.116c1.268-7.838,4.8-13.567,13.583-14.652A25.054,25.054,0,0,1,238.018,45.568Zm255.312,0-1.84,8.827c-3.952-.437-6.516-1.214-8.829.368-1.352.925-2.077,2.671-2.429,4.906l-.021,26.719-10.764.006V59.116c1.266-7.838,4.8-13.567,13.582-14.652a25.073,25.073,0,0,1,10.3,1.1ZM361.179,85.66v17.285l-11.083.013.069-42.5c1.342-8.574,4.987-14.8,13.956-16,10.65-1.414,19.011,5.162,20.229,13.977.284,2.064.18-2.176.18,6.3,0,12.879-4.7,22.756-16.365,22.756C365.3,87.5,363.758,86.628,361.179,85.66Zm8.827-8.094c2.851-1.28,3.416-7.057,3.416-12.219,0-6.163-1.06-9.409-2.678-10.586-1.916-1.393-3.462-.941-4.65-.941-6.7,0-4.913,13.84-4.913,23.009,3.881.675,5.836,2.079,8.826.737Z" transform="translate(-85.693 -28.876)" fill="#fff"/>
  </g>
</svg>
