<?xml version="1.0" encoding="UTF-8"?>
<svg id="Laag_1" data-name="Laag 1" xmlns="http://www.w3.org/2000/svg" width="43.79" height="83" viewBox="0 0 43.79 83">
  <defs>
    <style>
      .cls-1 {
        fill: #1d1d1b;
      }
    </style>
  </defs>
  <path class="cls-1" d="M43.57,11.98l-21.09,11.18c-.37,.2-.81,.2-1.18,0L.22,11.98c-.29-.15-.29-.57,0-.72L21.31,.14c.37-.19,.81-.19,1.17,0l21.09,11.11c.29,.15,.29,.57,0,.72Z"/>
  <g>
    <circle class="cls-1" cx="40.13" cy="19.02" r="1.56"/>
    <polygon class="cls-1" points="40.14 17.65 41.72 23.92 38.57 23.92 40.14 17.65"/>
    <rect class="cls-1" x="38.92" y="11.89" width="2.42" height="6.8"/>
  </g>
  <path class="cls-1" d="M22.53,26.64c-.4,.23-.87,.23-1.27,0l-11.48-6.74c-.46,1.47-.72,3.05-.72,4.69,0,7.85,5.74,14.21,12.83,14.21s12.83-6.36,12.83-14.21c0-1.65-.26-3.22-.72-4.69l-11.48,6.74Z"/>
  <path class="cls-1" d="M39.37,27.01c-1.23,0-2.29,.88-2.52,2.09-1.36,7.02-7.53,12.32-14.95,12.32s-13.59-5.3-14.95-12.32c-.23-1.21-1.29-2.09-2.52-2.09h-.83c-1.55,0-2.74,1.35-2.56,2.89,.53,4.45,1.76,8.62,4.6,16.04,4.49,11.76,11.01,19.88,15.54,24.64,.4,.42,1.07,.41,1.46-.01,4.52-4.93,10.77-13.03,15.23-24.53,2.87-7.4,4.22-11.56,4.85-16.08,.22-1.55-.99-2.94-2.56-2.94h-.77Z"/>
  <path class="cls-1" d="M30.68,64c-2.84,4.23-5.67,7.64-8.05,10.24-.4,.44-1.08,.44-1.49,0-2.41-2.52-5.33-5.92-8.26-10.2C5.28,65.61,0,69.06,0,73.09,0,78.56,9.8,83,21.89,83s21.89-4.44,21.89-9.92c0-4.06-5.39-7.55-13.11-9.08Z"/>
</svg>