<?xml version="1.0" encoding="UTF-8"?>
<svg id="Laag_1" data-name="Laag 1" xmlns="http://www.w3.org/2000/svg" width="213.38" height="74.01" viewBox="0 0 213.38 74.01">
  <defs>
    <style>
      .cls-1 {
        fill: white;
      }
      .cls-2 {
        fill: rgb(192 132 252);
      }
    </style>
  </defs>
  <g>
    <path class="cls-1" d="M49.2,46.6l1.76-3.9c1.89,1.38,4.7,2.34,7.39,2.34,3.07,0,4.32-1.02,4.32-2.4,0-4.19-13.02-1.31-13.02-9.63,0-3.81,3.07-6.98,9.44-6.98,2.82,0,5.7,.67,7.78,1.98l-1.6,3.94c-2.08-1.18-4.22-1.76-6.21-1.76-3.07,0-4.26,1.15-4.26,2.56,0,4.13,13.02,1.28,13.02,9.5,0,3.74-3.1,6.94-9.5,6.94-3.55,0-7.14-1.06-9.12-2.59Z"/>
    <path class="cls-1" d="M82.12,47.98c-1.02,.74-2.53,1.09-4.06,1.09-4.06,0-6.43-2.08-6.43-6.18v-7.07h-2.66v-3.84h2.66v-4.19h4.99v4.19h4.29v3.84h-4.29v7.01c0,1.47,.8,2.27,2.14,2.27,.74,0,1.47-.22,2.02-.64l1.34,3.52Z"/>
    <path class="cls-1" d="M102.28,31.6v17.21h-4.74v-2.05c-1.31,1.5-3.23,2.3-5.34,2.3-4.32,0-7.36-2.43-7.36-7.74v-9.73h4.99v8.99c0,2.88,1.28,4.16,3.49,4.16s3.97-1.47,3.97-4.64v-8.51h4.99Z"/>
    <path class="cls-1" d="M107.27,26.41h10.18c7.33,0,12.35,4.42,12.35,11.2s-5.02,11.2-12.35,11.2h-10.18V26.41Zm9.92,18.14c4.45,0,7.36-2.66,7.36-6.94s-2.91-6.94-7.36-6.94h-4.74v13.89h4.74Z"/>
    <path class="cls-1" d="M132.75,26.41c0-1.57,1.25-2.78,3.1-2.78s3.1,1.15,3.1,2.69c0,1.66-1.25,2.88-3.1,2.88s-3.1-1.22-3.1-2.78Zm.61,5.18h4.99v17.21h-4.99V31.6Z"/>
    <path class="cls-1" d="M159.75,41.61h-13.02c.48,2.14,2.3,3.46,4.93,3.46,1.82,0,3.14-.54,4.32-1.66l2.66,2.88c-1.6,1.82-4,2.78-7.1,2.78-5.95,0-9.82-3.74-9.82-8.86s3.94-8.86,9.18-8.86,8.96,3.39,8.96,8.93c0,.38-.06,.93-.1,1.34Zm-13.09-2.91h8.48c-.35-2.18-1.98-3.58-4.22-3.58s-3.9,1.38-4.26,3.58Z"/>
    <path class="cls-1" d="M180.78,38.96v9.86h-4.99v-9.09c0-2.78-1.28-4.06-3.49-4.06-2.4,0-4.13,1.47-4.13,4.64v8.51h-4.99V31.6h4.77v2.02c1.34-1.47,3.36-2.27,5.7-2.27,4.06,0,7.14,2.37,7.14,7.62Z"/>
    <path class="cls-1" d="M183.63,47.21l1.66-3.58c1.54,.99,3.87,1.66,5.98,1.66,2.3,0,3.17-.61,3.17-1.57,0-2.82-10.4,.06-10.4-6.82,0-3.26,2.94-5.57,7.97-5.57,2.37,0,4.99,.54,6.62,1.5l-1.66,3.55c-1.7-.96-3.39-1.28-4.96-1.28-2.24,0-3.2,.7-3.2,1.6,0,2.94,10.4,.1,10.4,6.88,0,3.2-2.98,5.47-8.13,5.47-2.91,0-5.86-.8-7.46-1.86Z"/>
    <path class="cls-1" d="M213.38,47.98c-1.02,.74-2.53,1.09-4.06,1.09-4.06,0-6.43-2.08-6.43-6.18v-7.07h-2.66v-3.84h2.66v-4.19h4.99v4.19h4.29v3.84h-4.29v7.01c0,1.47,.8,2.27,2.14,2.27,.74,0,1.47-.22,2.02-.64l1.34,3.52Z"/>
  </g>
  <g>
    <path class="cls-2" d="M38.85,10.68l-18.8,9.97c-.33,.17-.72,.17-1.05,0L.19,10.68c-.26-.14-.26-.51,0-.64L19,.13c.33-.17,.72-.17,1.05,0l18.8,9.91c.26,.14,.26,.51,0,.64Z"/>
    <g>
      <circle class="cls-2" cx="35.78" cy="16.96" r="1.39"/>
      <polygon class="cls-2" points="35.79 15.73 37.2 21.33 34.39 21.33 35.79 15.73"/>
      <rect class="cls-2" x="34.71" y="10.61" width="2.15" height="6.06"/>
    </g>
    <path class="cls-2" d="M20.09,23.75c-.35,.21-.78,.21-1.13,0l-10.23-6.01c-.41,1.31-.64,2.72-.64,4.19,0,7,5.12,12.67,11.44,12.67s11.44-5.67,11.44-12.67c0-1.47-.23-2.88-.64-4.19l-10.23,6.01Z"/>
    <path class="cls-2" d="M35.1,24.08c-1.1,0-2.04,.78-2.25,1.86-1.21,6.26-6.72,10.99-13.33,10.99s-12.12-4.73-13.33-10.99c-.21-1.08-1.15-1.86-2.25-1.86h-.74c-1.38,0-2.45,1.2-2.28,2.57,.47,3.97,1.57,7.69,4.1,14.3,4,10.49,9.81,17.73,13.85,21.97,.36,.37,.95,.37,1.3-.01,4.03-4.4,9.6-11.62,13.58-21.87,2.56-6.59,3.76-10.31,4.33-14.34,.19-1.38-.88-2.62-2.28-2.62h-.69Z"/>
    <path class="cls-2" d="M27.36,57.07c-2.53,3.78-5.06,6.82-7.18,9.13-.36,.39-.97,.39-1.33,0-2.15-2.25-4.75-5.27-7.37-9.09C4.71,58.5,0,61.58,0,65.17,0,70.05,8.74,74.01,19.52,74.01s19.52-3.96,19.52-8.84c0-3.62-4.81-6.73-11.69-8.1Z"/>
  </g>
</svg>