<?xml version="1.0" encoding="UTF-8"?>
<svg id="Laag_1" data-name="Laag 1" xmlns="http://www.w3.org/2000/svg" width="347.34" height="83" viewBox="0 0 347.34 83">
  <defs>
    <style>
      .cls-1 {
        fill: white;
      }
      .cls-2 {
        fill: rgb(192 132 252);
      }
    </style>
  </defs>
  <g>
    <path class="cls-1" d="M54.3,50.16l1.76-3.9c1.89,1.38,4.7,2.34,7.39,2.34,3.07,0,4.32-1.02,4.32-2.4,0-4.19-13.02-1.31-13.02-9.63,0-3.81,3.07-6.98,9.44-6.98,2.82,0,5.7,.67,7.78,1.98l-1.6,3.94c-2.08-1.18-4.22-1.76-6.21-1.76-3.07,0-4.26,1.15-4.26,2.56,0,4.13,13.02,1.28,13.02,9.5,0,3.74-3.1,6.94-9.5,6.94-3.55,0-7.14-1.06-9.12-2.59Z"/>
    <path class="cls-1" d="M87.22,51.54c-1.02,.74-2.53,1.09-4.06,1.09-4.06,0-6.43-2.08-6.43-6.18v-7.07h-2.66v-3.84h2.66v-4.19h4.99v4.19h4.29v3.84h-4.29v7.01c0,1.47,.8,2.27,2.14,2.27,.74,0,1.47-.22,2.02-.64l1.34,3.52Z"/>
    <path class="cls-1" d="M107.38,35.16v17.22h-4.74v-2.05c-1.31,1.5-3.23,2.3-5.34,2.3-4.32,0-7.36-2.43-7.36-7.74v-9.73h4.99v8.99c0,2.88,1.28,4.16,3.49,4.16s3.97-1.47,3.97-4.64v-8.51h4.99Z"/>
    <path class="cls-1" d="M112.38,29.97h10.18c7.33,0,12.35,4.42,12.35,11.2s-5.02,11.2-12.35,11.2h-10.18V29.97Zm9.92,18.14c4.45,0,7.36-2.66,7.36-6.94s-2.91-6.94-7.36-6.94h-4.74v13.89h4.74Z"/>
    <path class="cls-1" d="M137.85,29.97c0-1.57,1.25-2.78,3.1-2.78s3.1,1.15,3.1,2.69c0,1.66-1.25,2.88-3.1,2.88s-3.1-1.22-3.1-2.78Zm.61,5.18h4.99v17.22h-4.99v-17.22Z"/>
    <path class="cls-1" d="M164.85,45.17h-13.02c.48,2.14,2.3,3.46,4.93,3.46,1.82,0,3.14-.54,4.32-1.66l2.66,2.88c-1.6,1.82-4,2.78-7.1,2.78-5.95,0-9.82-3.74-9.82-8.86s3.94-8.86,9.18-8.86,8.96,3.39,8.96,8.93c0,.38-.06,.93-.1,1.34Zm-13.09-2.91h8.48c-.35-2.18-1.98-3.58-4.22-3.58s-3.9,1.38-4.26,3.58Z"/>
    <path class="cls-1" d="M185.88,42.51v9.86h-4.99v-9.09c0-2.78-1.28-4.06-3.49-4.06-2.4,0-4.13,1.47-4.13,4.64v8.51h-4.99v-17.22h4.77v2.02c1.34-1.47,3.36-2.27,5.7-2.27,4.06,0,7.14,2.37,7.14,7.62Z"/>
    <path class="cls-1" d="M188.73,50.77l1.66-3.58c1.54,.99,3.87,1.66,5.98,1.66,2.3,0,3.17-.61,3.17-1.57,0-2.82-10.4,.06-10.4-6.82,0-3.26,2.94-5.57,7.97-5.57,2.37,0,4.99,.54,6.62,1.5l-1.66,3.55c-1.7-.96-3.39-1.28-4.96-1.28-2.24,0-3.2,.7-3.2,1.6,0,2.94,10.4,.1,10.4,6.88,0,3.2-2.98,5.47-8.13,5.47-2.91,0-5.86-.8-7.46-1.86Z"/>
    <path class="cls-1" d="M218.49,51.54c-1.02,.74-2.53,1.09-4.06,1.09-4.06,0-6.43-2.08-6.43-6.18v-7.07h-2.66v-3.84h2.66v-4.19h4.99v4.19h4.29v3.84h-4.29v7.01c0,1.47,.8,2.27,2.14,2.27,.74,0,1.47-.22,2.02-.64l1.34,3.52Z"/>
  </g>
  <g>
    <path class="cls-1" d="M57.4,68.63h-3.94v-1.02h9.06v1.02h-3.94v10.18h-1.18v-10.18Z"/>
    <path class="cls-1" d="M62.44,74.6c0-2.5,1.82-4.27,4.29-4.27s4.27,1.78,4.27,4.27-1.81,4.29-4.27,4.29-4.29-1.79-4.29-4.29Zm7.41,0c0-1.97-1.33-3.28-3.12-3.28s-3.14,1.31-3.14,3.28,1.34,3.28,3.14,3.28,3.12-1.31,3.12-3.28Z"/>
    <path class="cls-1" d="M80.65,74.95h-7.04c.13,1.76,1.47,2.93,3.31,2.93,1.02,0,1.94-.37,2.58-1.1l.64,.74c-.75,.9-1.92,1.38-3.25,1.38-2.63,0-4.42-1.79-4.42-4.29s1.74-4.27,4.11-4.27,4.08,1.75,4.08,4.27c0,.1-.02,.22-.02,.35Zm-7.04-.85h5.97c-.14-1.65-1.34-2.8-2.99-2.8s-2.83,1.15-2.98,2.8Z"/>
    <path class="cls-1" d="M86.11,74.58l-1.98,1.82v2.4h-1.14v-11.88h1.14v8.05l5.03-4.59h1.41l-3.6,3.44,3.94,4.98h-1.39l-3.39-4.23Z"/>
    <path class="cls-1" d="M91.42,74.6c0-2.5,1.82-4.27,4.29-4.27s4.27,1.78,4.27,4.27-1.81,4.29-4.27,4.29-4.29-1.79-4.29-4.29Zm7.41,0c0-1.97-1.33-3.28-3.12-3.28s-3.14,1.31-3.14,3.28,1.34,3.28,3.14,3.28,3.12-1.31,3.12-3.28Z"/>
    <path class="cls-1" d="M116.19,73.93v4.88h-1.14v-4.77c0-1.78-.9-2.69-2.42-2.69-1.73,0-2.82,1.12-2.82,3.04v4.42h-1.14v-4.77c0-1.78-.9-2.69-2.43-2.69-1.71,0-2.82,1.12-2.82,3.04v4.42h-1.14v-8.42h1.09v1.54c.59-1.01,1.68-1.6,3.09-1.6s2.48,.59,2.99,1.78c.61-1.09,1.81-1.78,3.33-1.78,2.05,0,3.39,1.18,3.39,3.6Z"/>
    <path class="cls-1" d="M118.1,77.85l.51-.9c.67,.53,1.81,.94,2.99,.94,1.6,0,2.26-.54,2.26-1.38,0-2.19-5.46-.46-5.46-3.79,0-1.38,1.18-2.4,3.33-2.4,1.09,0,2.27,.3,2.98,.78l-.5,.91c-.74-.51-1.62-.72-2.48-.72-1.52,0-2.19,.59-2.19,1.39,0,2.27,5.46,.56,5.46,3.79,0,1.46-1.28,2.4-3.47,2.4-1.39,0-2.74-.45-3.43-1.04Z"/>
    <path class="cls-1" d="M131.53,78.3c-.45,.4-1.12,.59-1.78,.59-1.58,0-2.46-.9-2.46-2.45v-5.09h-1.5v-.96h1.5v-1.84h1.14v1.84h2.56v.96h-2.56v5.03c0,.99,.51,1.54,1.46,1.54,.46,0,.93-.14,1.25-.43l.4,.82Z"/>
    <path class="cls-1" d="M133.34,67.73c0-.43,.37-.8,.83-.8s.83,.35,.83,.78c0,.46-.35,.83-.83,.83s-.83-.37-.83-.82Zm.26,2.66h1.14v8.42h-1.14v-8.42Z"/>
    <path class="cls-1" d="M145.69,70.39v7.39c0,2.9-1.42,4.21-4.21,4.21-1.54,0-3.04-.46-3.92-1.3l.58-.86c.8,.72,2.02,1.15,3.31,1.15,2.13,0,3.1-.98,3.1-3.06v-1.07c-.7,1.07-1.9,1.63-3.28,1.63-2.4,0-4.23-1.68-4.23-4.1s1.82-4.07,4.23-4.07c1.41,0,2.62,.58,3.33,1.68v-1.62h1.09Zm-1.1,4c0-1.82-1.34-3.07-3.2-3.07s-3.19,1.25-3.19,3.07,1.33,3.09,3.19,3.09,3.2-1.26,3.2-3.09Z"/>
    <path class="cls-1" d="M156.2,74.95h-7.04c.13,1.76,1.47,2.93,3.31,2.93,1.02,0,1.94-.37,2.58-1.1l.64,.74c-.75,.9-1.92,1.38-3.25,1.38-2.62,0-4.42-1.79-4.42-4.29s1.74-4.27,4.11-4.27,4.08,1.75,4.08,4.27c0,.1-.02,.22-.02,.35Zm-7.04-.85h5.97c-.14-1.65-1.34-2.8-2.99-2.8s-2.83,1.15-2.98,2.8Z"/>
    <path class="cls-1" d="M171.26,74.6c0,2.56-1.79,4.29-4.19,4.29-1.34,0-2.5-.58-3.2-1.67v4.69h-1.14v-11.52h1.09v1.66c.69-1.12,1.86-1.73,3.25-1.73,2.4,0,4.19,1.73,4.19,4.27Zm-1.14,0c0-1.95-1.36-3.28-3.14-3.28s-3.14,1.33-3.14,3.28,1.34,3.28,3.14,3.28,3.14-1.31,3.14-3.28Z"/>
    <path class="cls-1" d="M177.82,70.33v1.1c-.1,0-.19-.02-.27-.02-1.76,0-2.83,1.12-2.83,3.1v4.29h-1.14v-8.42h1.09v1.65c.53-1.12,1.6-1.71,3.15-1.71Z"/>
    <path class="cls-1" d="M178.94,74.6c0-2.5,1.82-4.27,4.29-4.27s4.27,1.78,4.27,4.27-1.81,4.29-4.27,4.29-4.29-1.79-4.29-4.29Zm7.41,0c0-1.97-1.33-3.28-3.12-3.28s-3.14,1.31-3.14,3.28,1.34,3.28,3.14,3.28,3.12-1.31,3.12-3.28Z"/>
    <path class="cls-1" d="M191.11,69.4v.99h2.59v.96h-2.56v7.46h-1.14v-7.46h-1.5v-.96h1.5v-1.04c0-1.5,.9-2.5,2.54-2.5,.62,0,1.26,.18,1.68,.53l-.38,.85c-.32-.27-.77-.42-1.25-.42-.98,0-1.49,.54-1.49,1.58Z"/>
    <path class="cls-1" d="M202.43,74.95h-7.04c.13,1.76,1.47,2.93,3.31,2.93,1.02,0,1.94-.37,2.58-1.1l.64,.74c-.75,.9-1.92,1.38-3.25,1.38-2.62,0-4.42-1.79-4.42-4.29s1.75-4.27,4.11-4.27,4.08,1.75,4.08,4.27c0,.1-.02,.22-.02,.35Zm-7.04-.85h5.97c-.14-1.65-1.34-2.8-2.99-2.8s-2.83,1.15-2.98,2.8Z"/>
    <path class="cls-1" d="M203.59,77.85l.51-.9c.67,.53,1.81,.94,2.99,.94,1.6,0,2.26-.54,2.26-1.38,0-2.19-5.46-.46-5.46-3.79,0-1.38,1.18-2.4,3.33-2.4,1.09,0,2.27,.3,2.98,.78l-.5,.91c-.74-.51-1.62-.72-2.48-.72-1.52,0-2.19,.59-2.19,1.39,0,2.27,5.46,.56,5.46,3.79,0,1.46-1.28,2.4-3.47,2.4-1.39,0-2.74-.45-3.43-1.04Z"/>
    <path class="cls-1" d="M211.42,77.85l.51-.9c.67,.53,1.81,.94,2.99,.94,1.6,0,2.26-.54,2.26-1.38,0-2.19-5.46-.46-5.46-3.79,0-1.38,1.18-2.4,3.33-2.4,1.09,0,2.27,.3,2.98,.78l-.5,.91c-.74-.51-1.62-.72-2.48-.72-1.52,0-2.19,.59-2.19,1.39,0,2.27,5.46,.56,5.46,3.79,0,1.46-1.28,2.4-3.47,2.4-1.39,0-2.74-.45-3.43-1.04Z"/>
    <path class="cls-1" d="M220.15,67.73c0-.43,.37-.8,.83-.8s.83,.35,.83,.78c0,.46-.35,.83-.83,.83s-.83-.37-.83-.82Zm.26,2.66h1.14v8.42h-1.14v-8.42Z"/>
    <path class="cls-1" d="M223.86,74.6c0-2.5,1.83-4.27,4.29-4.27s4.27,1.78,4.27,4.27-1.81,4.29-4.27,4.29-4.29-1.79-4.29-4.29Zm7.41,0c0-1.97-1.33-3.28-3.12-3.28s-3.14,1.31-3.14,3.28,1.34,3.28,3.14,3.28,3.12-1.31,3.12-3.28Z"/>
    <path class="cls-1" d="M242.49,73.93v4.88h-1.14v-4.77c0-1.78-.93-2.69-2.53-2.69-1.81,0-2.95,1.12-2.95,3.04v4.42h-1.14v-8.42h1.09v1.55c.61-1.02,1.75-1.62,3.2-1.62,2.05,0,3.46,1.18,3.46,3.6Z"/>
    <path class="cls-1" d="M251.93,73.59v5.22h-1.09v-1.31c-.51,.86-1.5,1.39-2.9,1.39-1.9,0-3.07-.99-3.07-2.45,0-1.3,.83-2.38,3.25-2.38h2.67v-.51c0-1.44-.82-2.22-2.38-2.22-1.09,0-2.11,.38-2.8,.99l-.51-.85c.85-.72,2.1-1.14,3.43-1.14,2.18,0,3.41,1.09,3.41,3.27Zm-1.14,2.69v-1.38h-2.64c-1.63,0-2.16,.64-2.16,1.5,0,.98,.78,1.58,2.13,1.58s2.22-.61,2.67-1.71Z"/>
    <path class="cls-1" d="M255.02,66.93h1.14v11.88h-1.14v-11.88Z"/>
    <path class="cls-1" d="M258.15,77.85l.51-.9c.67,.53,1.81,.94,2.99,.94,1.6,0,2.26-.54,2.26-1.38,0-2.19-5.46-.46-5.46-3.79,0-1.38,1.18-2.4,3.33-2.4,1.09,0,2.27,.3,2.98,.78l-.5,.91c-.74-.51-1.62-.72-2.48-.72-1.52,0-2.19,.59-2.19,1.39,0,2.27,5.46,.56,5.46,3.79,0,1.46-1.28,2.4-3.47,2.4-1.39,0-2.74-.45-3.43-1.04Z"/>
    <path class="cls-1" d="M270.49,74.6c0-2.5,1.82-4.27,4.29-4.27s4.27,1.78,4.27,4.27-1.81,4.29-4.27,4.29-4.29-1.79-4.29-4.29Zm7.41,0c0-1.97-1.33-3.28-3.12-3.28s-3.14,1.31-3.14,3.28,1.34,3.28,3.14,3.28,3.12-1.31,3.12-3.28Z"/>
    <path class="cls-1" d="M289.9,74.6c0,2.56-1.79,4.29-4.19,4.29-1.34,0-2.5-.58-3.2-1.67v4.69h-1.14v-11.52h1.09v1.66c.69-1.12,1.86-1.73,3.25-1.73,2.4,0,4.19,1.73,4.19,4.27Zm-1.14,0c0-1.95-1.36-3.28-3.14-3.28s-3.14,1.33-3.14,3.28,1.34,3.28,3.14,3.28,3.14-1.31,3.14-3.28Z"/>
    <path class="cls-1" d="M296.41,66.93h1.14v11.88h-1.14v-11.88Z"/>
    <path class="cls-1" d="M299.86,74.6c0-2.5,1.82-4.27,4.29-4.27s4.27,1.78,4.27,4.27-1.81,4.29-4.27,4.29-4.29-1.79-4.29-4.29Zm7.41,0c0-1.97-1.33-3.28-3.12-3.28s-3.14,1.31-3.14,3.28,1.34,3.28,3.14,3.28,3.12-1.31,3.12-3.28Z"/>
    <path class="cls-1" d="M309.89,74.6c0-2.51,1.83-4.27,4.34-4.27,1.42,0,2.62,.56,3.3,1.67l-.85,.58c-.58-.85-1.47-1.25-2.45-1.25-1.84,0-3.19,1.31-3.19,3.28s1.34,3.28,3.19,3.28c.98,0,1.87-.38,2.45-1.23l.85,.58c-.67,1.09-1.87,1.67-3.3,1.67-2.51,0-4.34-1.78-4.34-4.29Z"/>
    <path class="cls-1" d="M326.11,73.59v5.22h-1.09v-1.31c-.51,.86-1.5,1.39-2.9,1.39-1.9,0-3.07-.99-3.07-2.45,0-1.3,.83-2.38,3.25-2.38h2.67v-.51c0-1.44-.82-2.22-2.38-2.22-1.09,0-2.11,.38-2.8,.99l-.51-.85c.85-.72,2.1-1.14,3.43-1.14,2.18,0,3.41,1.09,3.41,3.27Zm-1.14,2.69v-1.38h-2.64c-1.63,0-2.16,.64-2.16,1.5,0,.98,.78,1.58,2.13,1.58s2.22-.61,2.67-1.71Z"/>
    <path class="cls-1" d="M333.63,78.3c-.45,.4-1.12,.59-1.78,.59-1.58,0-2.47-.9-2.47-2.45v-5.09h-1.5v-.96h1.5v-1.84h1.14v1.84h2.56v.96h-2.56v5.03c0,.99,.51,1.54,1.46,1.54,.46,0,.93-.14,1.25-.43l.4,.82Z"/>
    <path class="cls-1" d="M335.43,67.73c0-.43,.37-.8,.83-.8s.83,.35,.83,.78c0,.46-.35,.83-.83,.83s-.83-.37-.83-.82Zm.26,2.66h1.14v8.42h-1.14v-8.42Z"/>
    <path class="cls-1" d="M347.32,74.95h-7.04c.13,1.76,1.47,2.93,3.31,2.93,1.02,0,1.94-.37,2.58-1.1l.64,.74c-.75,.9-1.92,1.38-3.25,1.38-2.62,0-4.42-1.79-4.42-4.29s1.75-4.27,4.11-4.27,4.08,1.75,4.08,4.27c0,.1-.02,.22-.02,.35Zm-7.04-.85h5.97c-.14-1.65-1.34-2.8-2.99-2.8s-2.83,1.15-2.98,2.8Z"/>
  </g>
  <g>
    <path class="cls-2" d="M43.57,11.98l-21.09,11.18c-.37,.2-.81,.2-1.18,0L.22,11.98c-.29-.15-.29-.57,0-.72L21.31,.14c.37-.19,.81-.19,1.17,0l21.09,11.11c.29,.15,.29,.57,0,.72Z"/>
    <g>
      <circle class="cls-2" cx="40.13" cy="19.02" r="1.56"/>
      <polygon class="cls-2" points="40.14 17.65 41.72 23.92 38.57 23.92 40.14 17.65"/>
      <rect class="cls-2" x="38.92" y="11.89" width="2.42" height="6.8"/>
    </g>
    <path class="cls-2" d="M22.53,26.64c-.4,.23-.87,.23-1.27,0l-11.48-6.74c-.46,1.47-.72,3.05-.72,4.69,0,7.85,5.74,14.21,12.83,14.21s12.83-6.36,12.83-14.21c0-1.65-.26-3.22-.72-4.69l-11.48,6.74Z"/>
    <path class="cls-2" d="M39.37,27.01c-1.23,0-2.29,.88-2.52,2.09-1.36,7.02-7.53,12.32-14.95,12.32s-13.59-5.3-14.95-12.32c-.23-1.21-1.29-2.09-2.52-2.09h-.83c-1.55,0-2.74,1.35-2.56,2.89,.53,4.45,1.76,8.62,4.6,16.04,4.49,11.76,11.01,19.88,15.54,24.64,.4,.42,1.07,.41,1.46-.01,4.52-4.93,10.77-13.03,15.23-24.53,2.87-7.4,4.22-11.56,4.85-16.08,.22-1.55-.99-2.94-2.56-2.94h-.77Z"/>
    <path class="cls-2" d="M30.68,64c-2.84,4.23-5.67,7.64-8.05,10.24-.4,.44-1.08,.44-1.49,0-2.41-2.52-5.33-5.92-8.26-10.2C5.28,65.61,0,69.06,0,73.09,0,78.56,9.8,83,21.89,83s21.89-4.44,21.89-9.92c0-4.06-5.39-7.55-13.11-9.08Z"/>
  </g>
</svg>