<svg xmlns="http://www.w3.org/2000/svg" width="391" height="46.08" viewBox="0 0 391 46.08">
  <g id="Group_34" data-name="Group 34" transform="translate(0 0)">
    <path id="ic_business_center_24px" d="M22.48,36.28V33.72H4.586L4.56,43.96a5.1,5.1,0,0,0,5.12,5.12H45.52a5.1,5.1,0,0,0,5.12-5.12V33.72H32.72v2.56Zm25.6-23.04H37.814V8.12L32.694,3H22.454l-5.12,5.12v5.12H7.12A5.135,5.135,0,0,0,2,18.36v7.68a5.1,5.1,0,0,0,5.12,5.12H22.48V26.04H32.72v5.12H48.08a5.135,5.135,0,0,0,5.12-5.12V18.36A5.135,5.135,0,0,0,48.08,13.24Zm-15.36,0H22.48V8.12H32.72Z" transform="translate(-2 -3)" fill="#9d49f2"/>
    <text id="Future_professionals" data-name="Future professionals" transform="translate(69 34)" fill="#9d49f2" font-size="30" font-family="Montserrat-Bold, Montserrat" font-weight="700"><tspan x="0" y="0">Future professionals</tspan></text>
  </g>
</svg>
